<?xml version="1.0" encoding="utf-8"?>
<!-- Uploaded to: SVG Repo, www.svgrepo.com, Generator: SVG Repo Mixer Tools -->
<svg fill="#000000" width="800px" height="800px" viewBox="0 0 32 32" version="1.1" xmlns="http://www.w3.org/2000/svg">
<title>ios</title>
<path d="M1.119 12.633v10.576h2.49v-10.576h-2.49zM11.882 10.768c2.553 0 4.193 2.040 4.193 5.232 0 3.217-1.64 5.257-4.193 5.257-2.578 0-4.206-2.040-4.206-5.257 0-3.192 1.627-5.232 4.206-5.232zM25.45 8.578c-3.129 0-5.357 1.727-5.357 4.293 0 2.040 1.264 3.317 3.918 3.93l1.865 0.451c1.815 0.413 2.553 1.014 2.553 2.053 0 1.202-1.214 2.053-2.941 2.053-1.765 0-3.092-0.864-3.229-2.19h-2.503c0.1 2.654 2.278 4.281 5.582 4.281 3.492 0 5.683-1.715 5.683-4.443 0-2.14-1.252-3.354-4.155-4.018l-1.665-0.376c-1.765-0.426-2.491-0.989-2.491-1.94 0-1.202 1.101-2.003 2.729-2.003 1.64 0 2.766 0.814 2.891 2.153h2.453c-0.063-2.528-2.153-4.243-5.332-4.243zM11.882 8.578c-4.205-0-6.834 2.866-6.834 7.422 0 4.594 2.628 7.447 6.834 7.447 4.181 0 6.821-2.854 6.821-7.447 0-4.556-2.641-7.422-6.822-7.422zM2.357 8.553c-0.007-0-0.016-0-0.024-0-0.747 0-1.352 0.605-1.352 1.352s0.605 1.352 1.352 1.352c0.009 0 0.017-0 0.026-0l-0.001 0c0.011 0 0.024 0.001 0.037 0.001 0.747 0 1.352-0.605 1.352-1.352s-0.605-1.352-1.352-1.352c-0.013 0-0.026 0-0.039 0.001l0.002-0z"></path>
</svg>