<?xml version="1.0" encoding="utf-8"?>
<!-- Uploaded to: SVG Repo, www.svgrepo.com, Generator: SVG Repo Mixer Tools -->
<svg fill="#000000" width="800px" height="800px" viewBox="0 0 32 32" version="1.1" xmlns="http://www.w3.org/2000/svg">
<title>macos</title>
<path d="M25.658 17.49c0.052 1.257 1.082 2.032 2.649 2.032 1.65 0 2.688-0.812 2.688-2.107 0-1.016-0.586-1.587-1.969-1.903l-0.784-0.18c-0.837-0.197-1.181-0.462-1.181-0.916 0-0.566 0.519-0.945 1.29-0.945 0.779 0 1.312 0.382 1.37 1.021h1.162c-0.029-1.2-1.021-2.012-2.523-2.012-1.483 0-2.537 0.816-2.537 2.024 0 0.975 0.596 1.578 1.852 1.867l0.884 0.207c0.86 0.204 1.208 0.487 1.208 0.977 0 0.567-0.571 0.973-1.393 0.973-0.831 0-1.458-0.411-1.535-1.040zM21.932 13.518c1.213 0 1.988 0.962 1.988 2.484 0 1.516-0.775 2.479-1.987 2.479-1.22 0-1.989-0.962-1.989-2.479 0-1.521 0.77-2.484 1.988-2.484zM21.932 12.479c-0.032-0.001-0.070-0.002-0.108-0.002-1.74 0-3.15 1.41-3.15 3.15 0 0.133 0.008 0.263 0.024 0.391l-0.002-0.015c-0.014 0.113-0.022 0.243-0.022 0.375 0 1.738 1.409 3.146 3.146 3.146 0.040 0 0.079-0.001 0.119-0.002l-0.006 0c0.032 0.001 0.070 0.002 0.107 0.002 1.737 0 3.144-1.408 3.144-3.144 0-0.133-0.008-0.263-0.024-0.392l0.002 0.015c0.014-0.113 0.023-0.245 0.023-0.378 0-1.739-1.409-3.148-3.148-3.148-0.037 0-0.074 0.001-0.11 0.002l0.005-0zM18.301 16.186c-0.087-1.065-0.973-1.896-2.053-1.896-0.059 0-0.117 0.002-0.175 0.007l0.008-0.001c-0.021-0.001-0.045-0.001-0.070-0.001-1.295 0-2.344 1.050-2.344 2.344 0 0.093 0.005 0.185 0.016 0.276l-0.001-0.011c-0.010 0.082-0.016 0.177-0.016 0.273 0 1.287 1.043 2.33 2.33 2.33 0.033 0 0.067-0.001 0.1-0.002l-0.005 0c0.056 0.006 0.122 0.009 0.188 0.009 1.064 0 1.936-0.817 2.026-1.857l0.001-0.008h-1.11c-0.067 0.515-0.503 0.908-1.030 0.908-0.021 0-0.043-0.001-0.064-0.002l0.003 0c-0.746 0-1.227-0.604-1.227-1.652 0-1.030 0.476-1.653 1.218-1.653 0.013-0.001 0.028-0.001 0.043-0.001 0.541 0 0.988 0.406 1.052 0.931l0 0.005zM10.422 19.488c0.009 0 0.019 0 0.030 0 0.649 0 1.217-0.349 1.525-0.871l0.005-0.008h0.022v0.799h1.135v-3.449c0-1.005-0.809-1.662-2.049-1.662-1.276 0-2.074 0.671-2.126 1.606h1.091c0.094-0.4 0.447-0.693 0.869-0.693 0.042 0 0.083 0.003 0.123 0.008l-0.005-0.001c0.58 0 0.935 0.302 0.935 0.827v0.359l-1.322 0.075c-1.22 0.076-1.904 0.61-1.904 1.498 0.008 0.84 0.69 1.517 1.531 1.517 0.050 0 0.099-0.002 0.147-0.007l-0.006 0zM10.777 18.601c-0.51 0-0.85-0.26-0.85-0.671 0-0.397 0.325-0.652 0.892-0.69l1.157-0.071v0.384c-0.034 0.588-0.519 1.052-1.112 1.052-0.031 0-0.062-0.001-0.092-0.004l0.004 0zM1.004 19.408h1.176v-3.065c-0.002-0.023-0.003-0.049-0.003-0.075 0-0.534 0.432-0.967 0.966-0.968h0c0.018-0.001 0.040-0.002 0.062-0.002 0.458 0 0.829 0.371 0.829 0.829 0 0.027-0.001 0.053-0.004 0.079l0-0.003v3.207h1.143v-3.095c-0.002-0.023-0.003-0.049-0.003-0.076 0-0.519 0.42-0.939 0.939-0.939 0.007 0 0.013 0 0.020 0l-0.001-0c0.018-0.001 0.039-0.002 0.060-0.002 0.467 0 0.845 0.378 0.845 0.845 0 0.042-0.003 0.083-0.009 0.124l0.001-0.005v3.147h1.175v-3.434c0.003-0.034 0.004-0.074 0.004-0.114 0-0.859-0.696-1.555-1.555-1.555-0.029 0-0.058 0.001-0.086 0.002l0.004-0c-0.019-0.001-0.040-0.001-0.062-0.001-0.673 0-1.249 0.412-1.492 0.996l-0.004 0.011h-0.029c-0.156-0.585-0.681-1.009-1.305-1.009-0.032 0-0.064 0.001-0.096 0.003l0.004-0c-0.014-0-0.029-0.001-0.045-0.001-0.631 0-1.169 0.397-1.378 0.954l-0.003 0.010h-0.024v-0.869h-1.128v5.007z"></path>
</svg>